<?xml version="1.0" encoding="UTF-8"?>
<svg id="Layer_1" data-name="Layer 1" xmlns="http://www.w3.org/2000/svg" viewBox="0 0 192 192">
  <defs>
    <style>
      .cls-1 {
        fill: #189bd7;
        stroke-width: 0px;
      }
    </style>
  </defs>
  <g id="NIerOU.tif">
    <g id="NIerOU.tif-2" data-name="NIerOU.tif">
      <g>
        <path class="cls-1" d="m85.97,7.46c7.31,3.07,14.07,7.09,20.32,11.99,7.4,5.8,13.04,13.03,17.66,21.16,3.68,6.48,6.28,13.42,8.84,20.37,2.79,7.59,5.24,15.3,8.01,22.9,3.37,9.22,6.54,18.52,11.01,27.3,4.38,8.58,9.78,16.45,16.35,23.51,3.66,3.93,7.61,7.53,11.78,10.9,1.16.94,2.31,1.9,3.47,2.86-.4-.16-.84-.3-1.25-.51-7.36-3.75-14.2-8.25-20.52-13.58-3.75-3.17-7.26-6.57-10.56-10.18-4.44-4.85-8.06-10.3-11.47-15.9-2.68-4.4-5.13-8.91-6.99-13.72-1.64-4.23-3.26-8.48-4.85-12.73-1.57-4.2-3.11-8.42-4.64-12.64-2.22-6.13-4.38-12.28-6.62-18.39-2.99-8.14-6.39-16.08-11.3-23.3-4.48-6.59-9.79-12.38-16.07-17.28-1.1-.86-2.21-1.7-3.31-2.55.05-.06.1-.13.15-.19Z"/>
        <path class="cls-1" d="m191.72,153.59c-.29.27-.56.58-.89.81-3.7,2.69-7.48,5.25-11.56,7.35-7.45,3.84-15.29,6.38-23.61,7.5-5.09.68-10.19,1.07-15.29.6-4.49-.42-8.95-1.18-13.4-1.91-5.76-.95-11.51-1.99-17.25-3.04-7.29-1.34-14.55-2.83-21.85-4.05-4.44-.74-8.96-1.03-13.43-1.67-5.8-.82-11.62-.62-17.42-.41-4.11.15-8.23.8-12.3,1.51-3.59.63-7.16,1.49-10.65,2.54-3.67,1.1-7.24,2.54-10.85,3.85-.81.29-1.59.66-2.39.98-.16.07-.35.07-.57,0,.58-.4,1.14-.86,1.76-1.21,6.3-3.6,12.82-6.77,19.5-9.61,3.87-1.65,7.92-2.75,11.97-3.8,3.35-.86,6.7-1.78,10.11-2.33,6.34-1.03,12.74-1.4,19.16-.99,3.83.25,7.66.48,11.48.91,3.57.4,7.12,1,10.66,1.6,4.18.7,8.36,1.47,12.53,2.27,4.89.93,9.75,1.96,14.65,2.86,4.2.77,8.41,1.52,12.64,2.08,3.45.45,6.94.66,10.42.87,6.07.35,12.12.03,18.12-.94,4.63-.75,9.13-2.04,13.47-3.84,1.64-.68,3.28-1.35,4.92-2.02.02.03.04.06.07.1Z"/>
        <path class="cls-1" d="m8.5,169.82c-.28-2.35-.71-4.7-.79-7.06-.17-4.81-.04-9.61.66-14.4.93-6.36,2.5-12.51,5.08-18.39,2.25-5.14,5.07-9.97,8.23-14.62,3.94-5.78,8.44-11.11,13.03-16.36,4.79-5.48,9.61-10.93,14.42-16.39,3.92-4.44,7.76-8.95,11.24-13.75,6.18-8.54,11.54-17.54,15.27-27.43,2.38-6.29,3.99-12.8,5.22-19.4.45-2.39.83-4.78,1.23-7.09.07.87.22,1.87.21,2.86-.06,3.89,0,7.8-.31,11.67-.53,6.46-1.31,12.91-3.03,19.19-1.33,4.86-2.9,9.61-4.87,14.26-2.26,5.35-4.86,10.52-8.07,15.34-2.78,4.19-5.7,8.3-8.8,12.25-3.39,4.31-7.04,8.42-10.62,12.57-4.13,4.79-8.35,9.5-12.44,14.32-4.52,5.32-8.91,10.74-12.64,16.66-3.79,6.02-7.02,12.31-9.33,19.05-1.55,4.52-2.61,9.15-3.2,13.88-.12.93-.16,1.88-.24,2.81-.09,0-.18,0-.27.01Z"/>
        <path class="cls-1" d="m94.81,6.72c.84.35,1.67.72,2.52,1.05,2.65,1.02,5.32,1.97,7.94,3.04,8.72,3.56,16.87,8.06,23.86,14.51,5.75,5.3,10.15,11.56,13.71,18.47,3.09,6.01,5.37,12.34,7.72,18.66,2.44,6.57,4.77,13.18,7.33,19.69,3.23,8.23,7.25,16.07,12.25,23.39,5.13,7.51,11.18,14.18,18.11,20.06,1.02.86,2.02,1.75,2.96,2.76-.95-.47-1.91-.92-2.84-1.42-6.63-3.56-12.84-7.74-18.45-12.75-3.66-3.26-7.18-6.69-10.07-10.66-2.4-3.3-4.58-6.76-6.76-10.21-2.37-3.76-4.35-7.73-5.92-11.89-1.67-4.43-3.28-8.88-4.93-13.31-1.05-2.84-2.11-5.68-3.2-8.5-1.85-4.79-3.65-9.6-5.63-14.34-3.61-8.64-8.48-16.5-15.16-23.13-4.13-4.1-8.72-7.63-13.82-10.43-2.98-1.64-6.11-2.98-9.18-4.46-.19-.09-.35-.26-.53-.4.03-.04.06-.08.09-.11Z"/>
        <path class="cls-1" d="m186.77,162.52c-1.51,1.34-2.82,2.62-4.25,3.74-3.06,2.4-6.08,4.87-9.3,7.05-5.81,3.94-12.11,6.86-18.88,8.85-8.68,2.55-17.51,3.04-26.44,2.16-4.3-.43-8.57-1.11-12.84-1.79-2.99-.47-5.94-1.16-8.92-1.68-3.22-.56-6.45-1.06-9.69-1.54-4.09-.61-8.17-1.23-12.28-1.72-2.49-.3-5.02-.34-7.53-.52-4.85-.35-9.68.05-14.49.51-6.39.62-12.66,1.95-18.81,3.82-2.35.71-4.68,1.53-7.02,2.29-.38.12-.76.23-1.14.34-.04-.06-.08-.12-.12-.19.21-.17.4-.35.62-.49,6.82-4.31,14.03-7.82,21.67-10.42,5.99-2.04,12.14-3.3,18.45-3.87,4.19-.38,8.37-.57,12.55-.11,6.12.68,12.25,1.35,18.35,2.19,6.11.84,12.18,1.9,18.27,2.84,4.97.76,9.93,1.63,14.92,2.15,3.4.35,6.86.26,10.29.23,4.71-.04,9.29-.98,13.8-2.28,5.55-1.59,10.73-4.04,15.67-6.98,2.35-1.4,4.6-2.98,7.07-4.59Z"/>
        <path class="cls-1" d="m3.08,160.2c-.13-.6-.28-1.19-.39-1.8-.49-2.85-1.03-5.69-1.45-8.55-.33-2.25-.62-4.51-.71-6.77-.23-5.61.21-11.17,1.26-16.71,1.66-8.73,5.19-16.65,10.08-24,1.83-2.74,3.72-5.46,5.74-8.06,2.44-3.14,5.03-6.15,7.58-9.2,3.31-3.96,6.71-7.86,9.97-11.87,6.83-8.4,12.92-17.28,17.44-27.17,2.67-5.84,4.48-11.94,5.85-18.19.44-2.03.91-4.06,1.37-6.09.02-.07.09-.12.24-.32.07.65.19,1.17.18,1.68-.04,4,.06,8.02-.21,12.01-.54,7.98-2.09,15.75-5.31,23.13-2.57,5.89-5.54,11.54-9.26,16.81-3.31,4.69-6.77,9.25-10.5,13.61-3.14,3.68-6.16,7.45-9.27,11.16-5,5.97-10.06,11.9-13.96,18.69-4.19,7.28-7.07,15.02-8.28,23.34-.45,3.04-.82,6.12-.88,9.19-.05,2.74.37,5.49.59,8.24.02.27.07.53.1.79-.07.02-.14.04-.21.06Z"/>
        <path class="cls-1" d="m186.43,151.47c-2.01.46-4.02.93-6.03,1.38-4.17.93-8.41,1.17-12.66.99-6.31-.27-12.55-1.06-18.69-2.57-5.15-1.26-10.31-2.45-15.46-3.69-5.36-1.29-10.71-2.62-16.08-3.88-3.66-.86-7.32-1.73-11.02-2.39-3.75-.67-7.53-1.16-11.32-1.57-4-.43-8.02-.77-12.04-.97-2.63-.13-5.28.02-7.92.1-2.3.07-4.6.15-6.88.38-2.36.24-4.72.57-7.05,1.04-3.94.81-7.85,1.77-11.78,2.66-.22.05-.45.09-.75-.05.63-.31,1.27-.63,1.9-.93,8.58-4.04,17.47-7.16,26.82-8.83,6.45-1.16,12.96-1.9,19.53-1.7,7.2.22,14.3,1.31,21.16,3.43,8.83,2.73,17.57,5.77,26.33,8.72,5.07,1.71,10.09,3.59,15.18,5.25,5.14,1.68,10.4,2.75,15.85,2.73,2.62,0,5.25,0,7.87-.04.8-.01,1.6-.22,2.4-.32.2-.02.4.02.6.04,0,.07.02.13.03.2Z"/>
        <path class="cls-1" d="m87.42,13.86c1.42,1.49,2.93,2.92,4.26,4.49,4.63,5.5,8.07,11.73,10.45,18.49,2.31,6.55,4.38,13.19,6.46,19.82,2.26,7.2,4.36,14.45,6.65,21.64,1.7,5.36,3.46,10.7,5.42,15.97,2.44,6.56,5.63,12.76,9.22,18.77,4.23,7.09,9.1,13.7,14.79,19.68,1.45,1.52,2.98,2.96,4.45,4.42-.36-.21-.79-.42-1.17-.69-2.5-1.8-5-3.59-7.47-5.43-3.62-2.71-7.08-5.6-10.16-8.94-2.22-2.4-4.63-4.65-6.62-7.22-3.67-4.75-6.86-9.85-9.59-15.22-1.15-2.26-2.45-4.47-3.43-6.81-1.94-4.61-3.61-9.33-4.65-14.24-1.1-5.21-2.15-10.43-3.14-15.66-.95-5.02-1.66-10.09-2.7-15.08-1.47-7.02-3.21-13.97-5.66-20.72-1.7-4.69-4.27-8.92-7.25-12.9-.03-.04-.03-.1-.05-.15l.19-.21Z"/>
        <path class="cls-1" d="m13.06,166.6c.27-1.12.49-2.25.81-3.35,1.11-3.8,2.65-7.43,4.57-10.9,3.85-6.96,8.78-13.1,14.23-18.86,6.35-6.73,12.72-13.43,19.01-20.21,5.47-5.89,11.01-11.71,15.99-18.02,6.35-8.04,11.66-16.74,15.59-26.21,1.82-4.39,3.25-8.94,4.82-13.43.21-.59.25-1.25.36-1.87.07,0,.13,0,.2,0,0,.49.04.99,0,1.47-.77,7.51-1.56,15.01-3.89,22.25-1.68,5.21-3.72,10.27-6.11,15.19-2.82,5.81-6.46,11.07-10.58,15.99-2.48,2.96-5.09,5.83-7.84,8.54-2.44,2.41-5.13,4.56-7.74,6.79-3.63,3.12-7.31,6.18-10.91,9.33-5.13,4.48-10.28,8.94-15.3,13.55-2.73,2.51-4.94,5.49-7.02,8.58-2.29,3.41-4.01,7.1-5.83,10.75-.08.15-.16.31-.24.46-.04-.02-.08-.03-.13-.05Z"/>
      </g>
    </g>
  </g>
</svg>