<?xml version="1.0" encoding="utf-8"?>
<!-- Generator: Adobe Illustrator 27.5.0, SVG Export Plug-In . SVG Version: 6.00 Build 0)  -->
<svg version="1.1" id="Layer_1" xmlns="http://www.w3.org/2000/svg" xmlns:xlink="http://www.w3.org/1999/xlink" x="0px" y="0px"
	 viewBox="0 0 395.6 79.2" style="enable-background:new 0 0 395.6 79.2;" xml:space="preserve">
<style type="text/css">
	.st0{stroke:#231F20;stroke-width:2;stroke-miterlimit:10;}
	.st1{fill:#1B9CD7;}
</style>
<rect x="144.5" y="18.4" class="st0" width="5" height="46.8"/>
<path class="st0" d="M183.4,31c0-7.6-5.2-12.6-13.8-12.6h-15.3v46.8h5V43.4h5.3l18.6,21.8h6.6l-18.6-21.7
	C178.8,43,183.4,38.2,183.4,31z M159.2,38.8V23.1h9.7c6,0,9.4,2.6,9.4,7.9s-3.4,7.9-9.4,7.9L159.2,38.8z"/>
<path class="st0" d="M133.3,18.4l-40,46.8h6.6l9.8-11.5h25.2v11.5h4.9V18.4H133.3z M134.8,49.2h-21.1l21.1-24.8V49.2z"/>
<path class="st0" d="M211.6,39v4.6H230c-0.9,9.7-8.1,17.1-18.4,17.1c-10.9,0-19.2-8.2-19.2-18.8s8.2-18.8,19.2-18.8
	c7.9,0,14,4.1,16.7,9.6h5.5c-2.4-7.1-10.8-14.1-22.2-14.1c-13.5,0-24.2,10.1-24.2,23.3s10.7,23.3,24.2,23.3s24.6-10.4,23.6-26.2
	L211.6,39L211.6,39z"/>
<path class="st0" d="M369.4,18.4h-12.8v45.1l-17.1-20c7.7-0.6,12.2-5.3,12.2-12.5c0-7.6-5.2-12.6-13.8-12.6h-15.3v46.8h5V43.5h5.3
	l18.5,21.8h17.9c14.7,0,25.2-9.9,25.2-23.4S384.1,18.4,369.4,18.4L369.4,18.4z M327.6,38.8V23.1h9.7c6,0,9.4,2.6,9.4,7.9
	s-3.4,7.9-9.4,7.9L327.6,38.8z M369.4,60.5h-7.8V23.2h7.8c12.1,0,20.1,7.9,20.1,18.6S381.5,60.5,369.4,60.5L369.4,60.5L369.4,60.5z"
	/>
<path class="st0" d="M311,18.4l-40,46.8h6.6l9.8-11.5h25.1v11.5h5V18.4H311z M312.4,49.2h-21.1l21.1-24.8V49.2z"/>
<path class="st0" d="M240.1,46.2c0,0-0.1,3.6,0.6,6c0.9,3.6,2.9,6.9,5.8,9.3c0,0,5.3,4.1,11.7,3.7v-4.7c0,0-11.7,0.7-13-11.9
	l-0.1-30.1h-5v25.2"/>
<path class="st0" d="M276.2,46.2c0,0,0.1,3.6-0.6,6c-0.9,3.6-2.9,6.9-5.8,9.3c0,0-5.3,4.1-11.7,3.7v-4.7c0,0,11.7,0.7,13-11.9V18.5
	h5v25.2"/>
<rect x="257.3" y="60.6" class="st0" width="2.2" height="4.7"/>
<rect x="240.1" y="42.4" class="st0" width="2.2" height="4.7"/>
<rect x="274" y="42.5" class="st0" width="2.2" height="4.7"/>
<g id="NIerOU.tif">
	<g id="NIerOU.tif-2">
		<g>
			<path class="st1" d="M38.3,2.2c3.1,1.3,5.9,3,8.5,5c3.1,2.4,5.5,5.5,7.4,8.9c1.5,2.7,2.6,5.7,3.7,8.5c1.2,3.2,2.2,6.4,3.4,9.6
				c1.4,3.9,2.7,7.8,4.6,11.5c1.8,3.6,4.1,6.9,6.9,9.9c1.5,1.6,3.2,3.2,5,4.6c0.5,0.4,1,0.8,1.4,1.2c-0.2,0-0.3-0.2-0.6-0.2
				c-3.1-1.6-6-3.5-8.7-5.7c-1.6-1.3-3-2.8-4.4-4.3c-1.9-2-3.4-4.3-4.8-6.7c-1.1-1.8-2.1-3.7-2.9-5.8c-0.7-1.8-1.4-3.6-2-5.4
				c-0.7-1.8-1.3-3.5-1.9-5.3c-0.9-2.6-1.8-5.2-2.8-7.8c-1.2-3.4-2.7-6.8-4.8-9.8c-1.9-2.8-4.1-5.2-6.8-7.3
				C39.2,3,38.7,2.7,38.3,2.2C38.3,2.3,38.3,2.2,38.3,2.2L38.3,2.2z"/>
			<path class="st1" d="M82.4,63.6L82,64c-1.5,1.1-3.1,2.2-4.9,3.1c-3.1,1.6-6.4,2.7-9.9,3.1c-2.1,0.3-4.3,0.4-6.4,0.2
				c-1.9-0.2-3.8-0.5-5.6-0.8c-2.4-0.4-4.8-0.8-7.3-1.3c-3.1-0.6-6.1-1.2-9.2-1.7c-1.9-0.3-3.8-0.4-5.7-0.7
				c-2.4-0.3-4.9-0.2-7.3-0.2c-1.7,0.1-3.5,0.3-5.2,0.7c-1.5,0.2-3,0.7-4.5,1c-1.5,0.4-3,1-4.6,1.6c-0.4,0.1-0.6,0.3-1,0.4
				c-0.1,0.1-0.2,0.1-0.2,0c0.2-0.2,0.5-0.3,0.8-0.5c2.6-1.5,5.4-2.8,8.2-4c1.6-0.7,3.3-1.1,5-1.6c1.4-0.3,2.8-0.8,4.2-1
				c2.7-0.4,5.4-0.6,8.1-0.4c1.6,0.1,3.2,0.2,4.8,0.4c1.5,0.2,3,0.4,4.5,0.7c1.7,0.3,3.5,0.6,5.3,0.9c2,0.4,4.1,0.8,6.2,1.2
				c1.8,0.3,3.5,0.7,5.3,0.9c1.4,0.2,2.9,0.3,4.4,0.3c2.5,0.2,5.1,0,7.6-0.4c1.9-0.3,3.8-0.8,5.7-1.6C81,64.2,81.6,63.9,82.4,63.6
				L82.4,63.6L82.4,63.6z"/>
			<path class="st1" d="M5.8,70.4c-0.1-1-0.3-2-0.3-3c0-2,0-4,0.3-6.1c0.4-2.7,1-5.3,2.1-7.8c0.9-2.2,2.1-4.2,3.5-6.2
				c1.6-2.4,3.5-4.7,5.5-6.9c2-2.3,4-4.6,6.1-6.9c1.6-1.9,3.3-3.8,4.7-5.8c2.6-3.6,4.9-7.4,6.4-11.5c1-2.6,1.7-5.4,2.2-8.2
				c0.2-1,0.3-2,0.5-3c0,0.3,0.1,0.8,0.1,1.2c0,1.6,0,3.3-0.2,4.9c-0.2,2.7-0.5,5.4-1.3,8.1c-0.5,2-1.2,4-2,6
				c-0.9,2.2-2,4.4-3.4,6.5c-1.2,1.7-2.4,3.5-3.7,5.2c-1.4,1.8-3,3.5-4.5,5.3c-1.7,2-3.5,4-5.2,6c-1.9,2.2-3.7,4.5-5.3,7
				s-2.9,5.2-3.9,8C6.7,65.1,6.3,67,6.1,69C5.9,69.6,5.9,70,5.8,70.4C5.9,70.4,5.8,70.4,5.8,70.4L5.8,70.4z"/>
			<path class="st1" d="M42.1,1.9c0.3,0.2,0.7,0.3,1,0.5c1.1,0.4,2.2,0.8,3.3,1.3c3.7,1.5,7.1,3.4,10,6.1c2.4,2.2,4.3,4.9,5.8,7.7
				c1.3,2.5,2.2,5.2,3.2,7.9c1,2.8,2,5.5,3.1,8.3c1.3,3.5,3,6.8,5.2,9.8c2.1,3.1,4.7,6,7.6,8.5c0.4,0.3,0.8,0.8,1.2,1.1l-1.2-0.6
				c-2.8-1.5-5.4-3.2-7.8-5.4c-1.5-1.4-3-2.8-4.2-4.5c-1-1.4-1.9-2.8-2.8-4.3c-1-1.6-1.8-3.2-2.5-5c-0.7-1.8-1.4-3.7-2.1-5.6
				c-0.5-1.2-0.9-2.4-1.3-3.6c-0.8-2-1.5-4-2.4-6c-1.5-3.6-3.6-7-6.4-9.7C50.1,6.7,48.1,5.2,46,4c-1.2-0.7-2.6-1.2-3.9-1.9
				C42.2,2.1,42.1,2,42.1,1.9C42,1.9,42.1,1.9,42.1,1.9L42.1,1.9z"/>
			<path class="st1" d="M80.3,67.4c-0.7,0.6-1.2,1.1-1.8,1.6c-1.3,1-2.5,2-3.9,3c-2.4,1.6-5.1,2.9-7.9,3.7
				c-3.6,1.1-7.4,1.3-11.1,0.9c-1.8-0.2-3.6-0.4-5.4-0.8c-1.2-0.2-2.5-0.5-3.7-0.7c-1.3-0.2-2.7-0.4-4.1-0.7
				c-1.7-0.2-3.4-0.5-5.2-0.8c-1-0.2-2.1-0.2-3.2-0.2c-2-0.2-4.1,0-6.1,0.2c-2.7,0.2-5.3,0.8-7.9,1.6c-1,0.3-2,0.7-2.9,0.9
				c-0.1,0.1-0.3,0.1-0.5,0.2c0-0.1,0-0.1,0-0.1c0.1-0.1,0.1-0.2,0.2-0.2c2.9-1.8,5.9-3.3,9.1-4.4c2.5-0.8,5.1-1.4,7.8-1.6
				c1.7-0.2,3.5-0.2,5.3-0.1c2.6,0.3,5.2,0.6,7.7,0.9c2.6,0.3,5.1,0.8,7.7,1.2c2.1,0.3,4.2,0.7,6.3,0.9c1.4,0.2,2.9,0.1,4.3,0.1
				c2,0,3.9-0.4,5.8-0.9c2.3-0.7,4.5-1.7,6.6-2.9C78.3,68.7,79.2,68,80.3,67.4L80.3,67.4z"/>
			<path class="st1" d="M3.5,66.4c0-0.2-0.1-0.5-0.2-0.8c-0.2-1.2-0.5-2.4-0.6-3.6c-0.2-0.9-0.2-1.9-0.3-2.8c-0.1-2.3,0.1-4.7,0.6-7
				c0.7-3.7,2.2-7,4.2-10.1C8,41,8.7,39.9,9.6,38.8c1-1.3,2.1-2.6,3.2-3.9c1.4-1.7,2.8-3.3,4.2-5c2.9-3.5,5.4-7.3,7.4-11.4
				c1.1-2.4,1.9-5,2.4-7.7c0.2-0.8,0.4-1.7,0.6-2.5c0-0.1,0-0.1,0.1-0.1c0,0.2,0.1,0.5,0.1,0.7c0,1.7,0,3.4-0.1,5.1
				c-0.2,3.3-0.9,6.6-2.2,9.7c-1.1,2.5-2.3,4.9-3.9,7.1c-1.4,2-2.8,3.9-4.4,5.7c-1.3,1.5-2.6,3.1-3.9,4.7c-2.1,2.5-4.2,5-5.9,7.8
				c-1.7,3.1-3,6.3-3.5,9.8c-0.2,1.3-0.3,2.6-0.3,3.9c0,1.1,0.1,2.3,0.2,3.5c0,0.1,0,0.2,0,0.3C3.6,66.4,3.5,66.4,3.5,66.4L3.5,66.4
				z"/>
			<path class="st1" d="M80.2,62.7c-0.8,0.2-1.7,0.4-2.5,0.6c-1.7,0.4-3.5,0.5-5.3,0.4c-2.6-0.1-5.3-0.4-7.8-1.1
				c-2.2-0.6-4.3-1-6.5-1.5s-4.5-1.1-6.8-1.6c-1.5-0.3-3.1-0.8-4.6-1c-1.6-0.3-3.2-0.5-4.8-0.7c-1.7-0.2-3.4-0.3-5.1-0.4
				c-1.1,0-2.2,0-3.3,0c-0.9,0-1.9,0-2.9,0.2c-1,0.1-2,0.2-3,0.5c-1.6,0.3-3.3,0.8-5,1.1c-0.1,0-0.2,0-0.3,0
				c0.2-0.2,0.5-0.2,0.8-0.4c3.6-1.7,7.4-3,11.3-3.7c2.7-0.5,5.5-0.8,8.2-0.7c3,0.1,6,0.5,8.9,1.4c3.7,1.1,7.4,2.4,11.1,3.7
				c2.1,0.7,4.2,1.5,6.4,2.2c2.1,0.7,4.4,1.1,6.7,1.1H79c0.3,0,0.7-0.1,1-0.2L80.2,62.7L80.2,62.7L80.2,62.7z"/>
			<path class="st1" d="M39,4.9c0.6,0.7,1.2,1.2,1.8,1.9c1.9,2.3,3.4,4.9,4.4,7.8c0.9,2.7,1.8,5.6,2.7,8.3c0.9,3,1.8,6.1,2.8,9.1
				c0.7,2.2,1.4,4.5,2.3,6.7c1,2.7,2.4,5.4,3.9,7.9c1.8,3,3.8,5.8,6.2,8.2c0.6,0.7,1.2,1.2,1.9,1.8c-0.2-0.1-0.3-0.2-0.5-0.3
				c-1-0.8-2.1-1.5-3.1-2.3c-1.5-1.1-3-2.3-4.3-3.8c-0.9-1-1.9-1.9-2.8-3c-1.5-2-2.9-4.1-4-6.4c-0.5-0.9-1-1.9-1.4-2.9
				c-0.8-1.9-1.5-3.9-1.9-6c-0.5-2.2-0.9-4.4-1.3-6.6c-0.4-2.1-0.7-4.2-1.1-6.4C44,16,43.3,13,42.2,10.2C41.2,8.4,40.2,6.7,39,4.9
				L39,4.9C38.9,5,38.9,5,39,4.9L39,4.9z"/>
			<path class="st1" d="M7.7,69.1c0.1-0.4,0.2-0.9,0.3-1.4c0.4-1.6,1.1-3.1,1.9-4.6c1.6-2.9,3.7-5.5,6-8c2.7-2.8,5.4-5.7,8-8.5
				c2.3-2.5,4.6-4.9,6.7-7.5c2.7-3.4,4.9-7.1,6.6-11c0.8-1.8,1.3-3.8,2-5.7c0.1-0.2,0.1-0.5,0.2-0.8h0.1v0.6
				c-0.3,3.1-0.7,6.3-1.6,9.3c-0.7,2.2-1.5,4.3-2.6,6.4c-1.2,2.4-2.7,4.7-4.5,6.7c-1,1.2-2.1,2.4-3.3,3.6c-1,1-2.1,1.9-3.2,2.8
				c-1.5,1.3-3.1,2.6-4.6,3.9c-2.1,1.9-4.3,3.8-6.4,5.7c-1.1,1-2.1,2.3-2.9,3.6c-0.9,1.4-1.7,3-2.4,4.5c-0.1,0.1-0.1,0.2-0.1,0.2
				C7.7,69.2,7.7,69.1,7.7,69.1L7.7,69.1z"/>
		</g>
	</g>
</g>
</svg>
